<?xml version="1.0" encoding="UTF-8" standalone="no"?>
<!-- Created with Inkscape (http://www.inkscape.org/) -->

<svg
   version="1.1"
   id="svg1"
   width="1254"
   height="1254"
   viewBox="0 0 1254 1254"
   xmlns="http://www.w3.org/2000/svg"
   xmlns:svg="http://www.w3.org/2000/svg">
  <defs
     id="defs1" />
  <g
     id="g1">
    <path
       style="display:inline;fill:#ffc43d;fill-opacity:1"
       d="M 617.20684,1151.491 C 613.49803,1149.8797 602.09711,1142.8115 571.5,1123.1545 531.22563,1097.2803 451.19832,1046.4987 410,1020.6742 387.175,1006.3667 352.975,984.92676 334,973.02988 315.025,961.13301 278.8,938.43361 253.5,922.58678 205.59833,892.58323 200.76831,888.96856 196.59431,880 l -2.09431,-4.5 -0.2644,-244 c -0.18384,-169.65913 0.06,-245.5695 0.80043,-249.15138 2.0221,-9.78249 6.47623,-14.44976 25.46397,-26.68251 30.04548,-19.35662 151.7927,-96.58281 191,-121.15432 20.9,-13.09818 60.05,-37.63029 87,-54.5158 26.95,-16.88551 63.15773,-39.58175 80.46161,-50.43609 17.30389,-10.85434 33.26566,-20.65552 35.47059,-21.78039 5.21288,-2.65942 14.71654,-3.34768 20.66685,-1.49673 2.52948,0.78685 21.20448,11.68521 41.5,24.21859 20.29552,12.53337 57.82595,35.60504 83.40095,51.27036 131.54383,80.57387 154.41713,94.85843 233,145.51035 53.3164,34.36598 58.0657,37.68141 61.7208,43.08667 6.7923,10.04453 6.322,-10.18624 6.0372,259.66467 L 1060.5,874.5 l -2.7015,5.5 c -4.8689,9.91288 3.5894,4.1578 -130.7985,88.99619 -80.95967,51.10941 -137.18741,86.75541 -220,139.47071 -62.98393,40.0931 -66.28232,42.1398 -69.89922,43.3736 -4.65459,1.5877 -15.8892,1.3904 -19.89394,-0.3495 z m 29.98903,-61.817 c 10.61727,-6.7793 24.47913,-15.5918 30.80413,-19.5833 6.325,-3.9915 15.55,-9.8495 20.5,-13.0177 37.92167,-24.2717 172.88918,-110.32582 198.5,-126.56187 37.72982,-23.91893 65.55988,-41.56629 88,-55.8018 l 24.5,-15.54226 0.21,-230.33353 L 1009.9199,398.5 990.70996,386.03554 C 904.91718,330.36853 898.21325,326.20014 716,215.22567 704.725,208.35879 691.675,200.3732 687,197.47993 678.98703,192.52084 629.37366,162.23243 627.74194,161.30355 626.74037,160.73338 582.01994,188.32616 417,291.33259 335.22658,342.37604 273.94364,380.88816 253.25,394.2382 l -9.25,5.96744 0.01,229.14718 0.01,229.14718 51.2403,31.46542 c 122.51448,75.23317 175.96361,109.21557 301.53065,191.71008 16.8903,11.0965 30.79778,20.209 30.90551,20.25 0.10772,0.041 8.88272,-5.4722 19.5,-12.2515 z M 612,773.10461 v -217.0585 l 2.25,-1.4043 C 629.23483,545.28933 677.218,516 677.55484,516 677.79968,516 678,541.2 678,572 v 56 h 67 67 v -89.91749 -89.9175 l 34.61575,-21.65831 c 19.03866,-11.91206 35.23866,-21.89734 36,-22.18949 C 883.79215,403.86578 884,436.60599 884,622.36074 v 218.57472 l -34.25,20.47327 c -18.8375,11.2603 -35.0375,20.77296 -36,21.13926 -1.65895,0.63134 -1.75,-4.20444 -1.75,-92.941 V 696 h -67.00733 -67.00734 l 0.0222,128.15175 c 0.0122,70.48347 -0.097,128.23666 -0.24267,128.34043 -0.1457,0.10376 -13.53991,7.74979 -29.76491,16.99118 -16.225,9.24138 -30.9625,17.6749 -32.75,18.74114 L 612,990.16312 Z M 548.4036,907.38913 C 533.05662,898.25315 518.25,889.3405 515.5,887.58325 512.75,885.82599 482.0375,867.32203 447.25,846.46334 L 384,808.53844 384.05198,596.51922 384.10396,384.5 408.67699,369 c 13.51518,-8.525 30.25428,-19.16429 37.19803,-23.64287 6.94374,-4.47858 12.96248,-7.93953 13.37498,-7.69099 0.4125,0.24854 0.77172,95.93784 0.79826,212.64288 l 0.0483,212.19098 29.70174,17.4669 c 29.04389,17.08003 35.68248,21.00509 70.95174,41.95018 L 578,832.16121 v 45.9194 C 578,903.33627 577.61912,924 577.1536,924 c -0.46552,0 -13.40302,-7.47489 -28.75,-16.61087 z"
       id="path8" />
  </g>
</svg>
