<svg xmlns="http://www.w3.org/2000/svg" viewBox="0 0 170 72" fill="none">
  <rect x="0" y="14.4" width="3" height="43.2" rx="1" fill="#FFF" />
  <rect x="8" y="14.4" width="2" height="43.2" rx="1" fill="#FFF" />
  <rect x="12" y="14.4" width="2" height="43.2" rx="1" fill="#FFF" />
  <rect x="17" y="14.4" width="4" height="43.2" rx="1" fill="#FFF" />
  <rect x="23" y="14.4" width="2" height="43.2" rx="1" fill="#FFF" />
  <rect x="29" y="14.4" width="3" height="43.2" rx="1" fill="#FFF" />
  <rect x="34" y="14.4" width="2" height="43.2" rx="1" fill="#FFF" />
  <rect x="39" y="14.4" width="4" height="43.2" rx="1" fill="#FFF" />
  <rect x="45" y="14.4" width="2" height="43.2" rx="1" fill="#FFF" />
  <rect x="49" y="14.4" width="2" height="43.2" rx="1" fill="#FFF" />
  <rect x="56" y="14.4" width="3" height="43.2" rx="1" fill="#FFF" />
  <rect x="61" y="14.4" width="4" height="43.2" rx="1" fill="#FFF" />
  <rect x="68" y="14.4" width="2" height="43.2" rx="1" fill="#FFF" />
  <rect x="72" y="14.4" width="2" height="43.2" rx="1" fill="#FFF" />
  <rect x="78" y="14.4" width="3" height="43.2" rx="1" fill="#FFF" />
  <rect x="83" y="14.4" width="2" height="43.2" rx="1" fill="#FFF" />
  <rect x="88" y="14.4" width="4" height="43.2" rx="1" fill="#FFF" />
  <rect x="94" y="14.4" width="2" height="43.2" rx="1" fill="#FFF" />
  <rect x="98" y="14.4" width="3" height="43.2" rx="1" fill="#FFF" />
  <rect x="105" y="14.4" width="2" height="43.2" rx="1" fill="#FFF" />
  <rect x="109" y="14.4" width="4" height="43.2" rx="1" fill="#FFF" />
  <rect x="116" y="14.4" width="2" height="43.2" rx="1" fill="#FFF" />
  <rect x="120" y="14.4" width="2" height="43.2" rx="1" fill="#FFF" />
  <rect x="127" y="14.4" width="3" height="43.2" rx="1" fill="#FFF" />
  <rect x="132" y="14.4" width="2" height="43.2" rx="1" fill="#FFF" />
  <rect x="137" y="14.4" width="4" height="43.2" rx="1" fill="#FFF" />
  <rect x="143" y="14.4" width="2" height="43.2" rx="1" fill="#FFF" />
  <rect x="149" y="14.4" width="3" height="43.2" rx="1" fill="#FFF" />
  <rect x="154" y="14.4" width="2" height="43.2" rx="1" fill="#FFF" />
  <rect x="158" y="14.4" width="2" height="43.2" rx="1" fill="#FFF" />
  <rect x="162" y="14.4" width="2" height="43.2" rx="1" fill="#FFF" />
  <rect x="168" y="14.4" width="2" height="43.2" rx="1" fill="#FFF" />
</svg>
