<svg xmlns="http://www.w3.org/2000/svg" viewBox="0 0 139 139" fill="none">
  <rect x="0" y="0" width="7" height="7" rx="1" fill="#FFF" />
  <rect x="11" y="0" width="7" height="7" rx="1" fill="#FFF" />
  <rect x="22" y="0" width="7" height="7" rx="1" fill="#FFF" />
  <rect x="33" y="0" width="7" height="7" rx="1" fill="#FFF" />
  <rect x="44" y="0" width="7" height="7" rx="1" fill="#FFF" />
  <rect x="66" y="0" width="7" height="7" rx="1" fill="#FFF" />
  <rect x="88" y="0" width="7" height="7" rx="1" fill="#FFF" />
  <rect x="99" y="0" width="7" height="7" rx="1" fill="#FFF" />
  <rect x="110" y="0" width="7" height="7" rx="1" fill="#FFF" />
  <rect x="121" y="0" width="7" height="7" rx="1" fill="#FFF" />
  <rect x="132" y="0" width="7" height="7" rx="1" fill="#FFF" />
  <rect x="0" y="11" width="7" height="7" rx="1" fill="#FFF" />
  <rect x="44" y="11" width="7" height="7" rx="1" fill="#FFF" />
  <rect x="77" y="11" width="7" height="7" rx="1" fill="#FFF" />
  <rect x="88" y="11" width="7" height="7" rx="1" fill="#FFF" />
  <rect x="132" y="11" width="7" height="7" rx="1" fill="#FFF" />
  <rect x="0" y="22" width="7" height="7" rx="1" fill="#FFF" />
  <rect x="22" y="22" width="7" height="7" rx="1" fill="#FFF" />
  <rect x="44" y="22" width="7" height="7" rx="1" fill="#FFF" />
  <rect x="55" y="22" width="7" height="7" rx="1" fill="#FFF" />
  <rect x="88" y="22" width="7" height="7" rx="1" fill="#FFF" />
  <rect x="110" y="22" width="7" height="7" rx="1" fill="#FFF" />
  <rect x="132" y="22" width="7" height="7" rx="1" fill="#FFF" />
  <rect x="0" y="33" width="7" height="7" rx="1" fill="#FFF" />
  <rect x="44" y="33" width="7" height="7" rx="1" fill="#FFF" />
  <rect x="66" y="33" width="7" height="7" rx="1" fill="#FFF" />
  <rect x="77" y="33" width="7" height="7" rx="1" fill="#FFF" />
  <rect x="88" y="33" width="7" height="7" rx="1" fill="#FFF" />
  <rect x="132" y="33" width="7" height="7" rx="1" fill="#FFF" />
  <rect x="0" y="44" width="7" height="7" rx="1" fill="#FFF" />
  <rect x="11" y="44" width="7" height="7" rx="1" fill="#FFF" />
  <rect x="22" y="44" width="7" height="7" rx="1" fill="#FFF" />
  <rect x="33" y="44" width="7" height="7" rx="1" fill="#FFF" />
  <rect x="44" y="44" width="7" height="7" rx="1" fill="#FFF" />
  <rect x="77" y="44" width="7" height="7" rx="1" fill="#FFF" />
  <rect x="88" y="44" width="7" height="7" rx="1" fill="#FFF" />
  <rect x="99" y="44" width="7" height="7" rx="1" fill="#FFF" />
  <rect x="110" y="44" width="7" height="7" rx="1" fill="#FFF" />
  <rect x="121" y="44" width="7" height="7" rx="1" fill="#FFF" />
  <rect x="132" y="44" width="7" height="7" rx="1" fill="#FFF" />
  <rect x="66" y="55" width="7" height="7" rx="1" fill="#FFF" />
  <rect x="110" y="55" width="7" height="7" rx="1" fill="#FFF" />
  <rect x="0" y="66" width="7" height="7" rx="1" fill="#FFF" />
  <rect x="11" y="66" width="7" height="7" rx="1" fill="#FFF" />
  <rect x="33" y="66" width="7" height="7" rx="1" fill="#FFF" />
  <rect x="55" y="66" width="7" height="7" rx="1" fill="#FFF" />
  <rect x="66" y="66" width="7" height="7" rx="1" fill="#FFF" />
  <rect x="88" y="66" width="7" height="7" rx="1" fill="#FFF" />
  <rect x="110" y="66" width="7" height="7" rx="1" fill="#FFF" />
  <rect x="121" y="66" width="7" height="7" rx="1" fill="#FFF" />
  <rect x="11" y="77" width="7" height="7" rx="1" fill="#FFF" />
  <rect x="44" y="77" width="7" height="7" rx="1" fill="#FFF" />
  <rect x="77" y="77" width="7" height="7" rx="1" fill="#FFF" />
  <rect x="99" y="77" width="7" height="7" rx="1" fill="#FFF" />
  <rect x="132" y="77" width="7" height="7" rx="1" fill="#FFF" />
  <rect x="0" y="88" width="7" height="7" rx="1" fill="#FFF" />
  <rect x="11" y="88" width="7" height="7" rx="1" fill="#FFF" />
  <rect x="22" y="88" width="7" height="7" rx="1" fill="#FFF" />
  <rect x="33" y="88" width="7" height="7" rx="1" fill="#FFF" />
  <rect x="44" y="88" width="7" height="7" rx="1" fill="#FFF" />
  <rect x="66" y="88" width="7" height="7" rx="1" fill="#FFF" />
  <rect x="88" y="88" width="7" height="7" rx="1" fill="#FFF" />
  <rect x="99" y="88" width="7" height="7" rx="1" fill="#FFF" />
  <rect x="121" y="88" width="7" height="7" rx="1" fill="#FFF" />
  <rect x="132" y="88" width="7" height="7" rx="1" fill="#FFF" />
  <rect x="0" y="99" width="7" height="7" rx="1" fill="#FFF" />
  <rect x="44" y="99" width="7" height="7" rx="1" fill="#FFF" />
  <rect x="66" y="99" width="7" height="7" rx="1" fill="#FFF" />
  <rect x="77" y="99" width="7" height="7" rx="1" fill="#FFF" />
  <rect x="110" y="99" width="7" height="7" rx="1" fill="#FFF" />
  <rect x="132" y="99" width="7" height="7" rx="1" fill="#FFF" />
  <rect x="0" y="110" width="7" height="7" rx="1" fill="#FFF" />
  <rect x="22" y="110" width="7" height="7" rx="1" fill="#FFF" />
  <rect x="44" y="110" width="7" height="7" rx="1" fill="#FFF" />
  <rect x="55" y="110" width="7" height="7" rx="1" fill="#FFF" />
  <rect x="77" y="110" width="7" height="7" rx="1" fill="#FFF" />
  <rect x="88" y="110" width="7" height="7" rx="1" fill="#FFF" />
  <rect x="110" y="110" width="7" height="7" rx="1" fill="#FFF" />
  <rect x="0" y="121" width="7" height="7" rx="1" fill="#FFF" />
  <rect x="44" y="121" width="7" height="7" rx="1" fill="#FFF" />
  <rect x="99" y="121" width="7" height="7" rx="1" fill="#FFF" />
  <rect x="121" y="121" width="7" height="7" rx="1" fill="#FFF" />
  <rect x="132" y="121" width="7" height="7" rx="1" fill="#FFF" />
  <rect x="0" y="132" width="7" height="7" rx="1" fill="#FFF" />
  <rect x="11" y="132" width="7" height="7" rx="1" fill="#FFF" />
  <rect x="22" y="132" width="7" height="7" rx="1" fill="#FFF" />
  <rect x="33" y="132" width="7" height="7" rx="1" fill="#FFF" />
  <rect x="44" y="132" width="7" height="7" rx="1" fill="#FFF" />
  <rect x="66" y="132" width="7" height="7" rx="1" fill="#FFF" />
  <rect x="77" y="132" width="7" height="7" rx="1" fill="#FFF" />
  <rect x="99" y="132" width="7" height="7" rx="1" fill="#FFF" />
  <rect x="110" y="132" width="7" height="7" rx="1" fill="#FFF" />
  <rect x="132" y="132" width="7" height="7" rx="1" fill="#FFF" />
</svg>
